<svg width="459" height="324" viewBox="0 0 459 324" fill="none" xmlns="http://www.w3.org/2000/svg">
<g filter="url(#filter0_f_11192_5067)">
<rect x="16.511" y="75.2698" width="178.53" height="238.384" rx="6.1918" fill="#C3CBD3" fill-opacity="0.3"/>
</g>
<rect x="24.2511" y="58.2422" width="184.722" height="246.64" rx="5.67582" fill="#F2F4F7" stroke="#D9E1E8" stroke-width="1.03197"/>
<rect opacity="0.8" x="38.1826" y="79.3975" width="156.859" height="61.918" rx="2.06393" fill="#F8FAFE"/>
<rect x="48.5022" y="97.9729" width="136.22" height="6.1918" rx="3.0959" fill="#AEBBC8"/>
<rect x="48.5022" y="116.548" width="81.5254" height="6.1918" rx="3.0959" fill="#AEBBC8"/>
<rect opacity="0.2" x="37.1504" y="153.699" width="74.3016" height="24.7672" rx="2.06393" fill="#AEBBC8"/>
<rect opacity="0.2" x="119.708" y="153.699" width="74.3016" height="24.7672" rx="2.06393" fill="#AEBBC8"/>
<rect opacity="0.2" x="37.1504" y="186.722" width="74.3016" height="24.7672" rx="2.06393" fill="#AEBBC8"/>
<rect opacity="0.2" x="119.708" y="186.722" width="74.3016" height="24.7672" rx="2.06393" fill="#AEBBC8"/>
<g filter="url(#filter1_f_11192_5067)">
<rect x="228.064" y="43.2787" width="178.53" height="238.384" rx="6.1918" fill="#A1C8C3" fill-opacity="0.3"/>
</g>
<rect x="233.74" y="25.2192" width="184.722" height="246.64" rx="5.67582" fill="#E3F7F6" stroke="#C4EAE6" stroke-width="1.03197"/>
<g opacity="0.8" filter="url(#filter2_d_11192_5067)">
<rect x="247.672" y="84.5574" width="156.859" height="80.4934" rx="6.1918" fill="white"/>
</g>
<rect x="257.991" y="103.133" width="136.22" height="6.1918" rx="3.0959" fill="#00C2A7" fill-opacity="0.5"/>
<rect x="257.991" y="121.708" width="136.22" height="6.1918" rx="3.0959" fill="#00C2A7" fill-opacity="0.5"/>
<rect x="257.991" y="140.284" width="46.4385" height="6.1918" rx="3.0959" fill="#00C2A7" fill-opacity="0.5"/>
<g opacity="0.8" filter="url(#filter3_d_11192_5067)">
<rect x="247.672" y="173.307" width="156.859" height="80.4934" rx="6.1918" fill="white"/>
</g>
<rect x="257.991" y="191.882" width="136.22" height="6.1918" rx="3.0959" fill="#00C2A7" fill-opacity="0.5"/>
<rect x="257.991" y="210.457" width="136.22" height="6.1918" rx="3.0959" fill="#00C2A7" fill-opacity="0.5"/>
<rect x="257.991" y="229.033" width="103.197" height="6.1918" rx="3.0959" fill="#00C2A7" fill-opacity="0.5"/>
<g clip-path="url(#clip0_11192_5067)">
<path d="M20.6393 189.818C32.0381 189.818 41.2787 180.577 41.2787 169.179C41.2787 157.78 32.0381 148.539 20.6393 148.539C9.24054 148.539 0 157.78 0 169.179C0 180.577 9.24054 189.818 20.6393 189.818Z" fill="#FFDE75"/>
<path d="M25.9673 181.261C25.7729 181.259 25.5828 181.204 25.4169 181.103C25.2511 181.001 25.1158 180.857 25.0255 180.685C24.5531 179.883 23.8773 179.22 23.0664 178.764C22.2555 178.307 21.3383 178.073 20.4078 178.085C19.4778 178.057 18.5575 178.283 17.7459 178.738C16.9343 179.193 16.2619 179.86 15.801 180.669C15.652 180.871 15.4371 181.014 15.1934 181.075C14.9497 181.135 14.6926 181.108 14.4666 180.999C14.2405 180.89 14.0598 180.705 13.9556 180.477C13.8513 180.248 13.8302 179.991 13.8958 179.748C14.5299 178.582 15.4732 177.614 16.6221 176.949C17.771 176.285 19.0809 175.95 20.4078 175.981C21.7292 175.971 23.0293 176.315 24.1726 176.978C25.316 177.64 26.2609 178.597 26.9091 179.748C27.033 179.999 27.0545 180.288 26.9691 180.554C26.8837 180.82 26.6982 181.043 26.4516 181.175C26.2986 181.239 26.1331 181.268 25.9673 181.261Z" fill="black"/>
<path d="M13.7721 169.001C13.7721 170.868 12.4374 172.381 10.7906 172.381C9.14377 172.381 7.81445 170.868 7.81445 169.001C7.81445 167.133 9.14915 165.626 10.7906 165.626C12.4321 165.626 13.7721 167.133 13.7721 169.001Z" fill="black"/>
<path d="M33.5988 169.001C33.5988 170.868 32.2695 172.381 30.6226 172.381C28.9758 172.381 27.6465 170.868 27.6465 169.001C27.6465 167.133 28.9758 165.626 30.6226 165.626C32.2695 165.626 33.5988 167.133 33.5988 169.001Z" fill="black"/>
<path d="M34.5405 165.411C34.3343 165.41 34.133 165.349 33.9603 165.237C33.7876 165.124 33.6509 164.964 33.5664 164.776C33.2472 164.168 32.7786 163.652 32.2048 163.275C31.3867 162.736 29.9282 162.855 29.4385 162.946C29.1857 162.949 28.9401 162.863 28.7446 162.702C28.5491 162.542 28.4163 162.318 28.3695 162.07C28.3226 161.821 28.3647 161.564 28.4883 161.344C28.612 161.123 28.8093 160.953 29.0456 160.864C29.3093 160.815 31.6881 160.401 33.3511 161.509C34.275 162.106 35.0192 162.944 35.5038 163.931C35.612 164.188 35.6164 164.477 35.516 164.737C35.4156 164.997 35.2183 165.208 34.9656 165.325C34.8312 165.382 34.6866 165.412 34.5405 165.411Z" fill="black"/>
<path d="M6.74333 165.411C6.94946 165.41 7.15084 165.349 7.32352 165.237C7.4962 165.124 7.63292 164.964 7.71744 164.776C8.03659 164.168 8.50515 163.652 9.07904 163.275C9.89708 162.736 11.3556 162.855 11.8453 162.946C12.0981 162.949 12.3437 162.863 12.5392 162.702C12.7347 162.542 12.8675 162.318 12.9143 162.07C12.9612 161.821 12.9191 161.564 12.7955 161.344C12.6718 161.123 12.4746 160.953 12.2382 160.864C11.9745 160.815 9.59569 160.401 7.93271 161.509C7.00878 162.106 6.26465 162.944 5.77997 163.931C5.67179 164.188 5.66743 164.477 5.7678 164.737C5.86818 164.997 6.06546 165.208 6.31816 165.325C6.45256 165.382 6.59723 165.412 6.74333 165.411Z" fill="black"/>
</g>
<g clip-path="url(#clip1_11192_5067)">
<path d="M428.782 167.763C445.025 167.763 458.193 154.595 458.193 138.352C458.193 122.109 445.025 108.941 428.782 108.941C412.539 108.941 399.371 122.109 399.371 138.352C399.371 154.595 412.539 167.763 428.782 167.763Z" fill="#FFDE75"/>
<path opacity="0.5" d="M442.993 140.998C449.058 140.998 453.975 136.081 453.975 130.016C453.975 123.95 449.058 119.033 442.993 119.033C436.927 119.033 432.01 123.95 432.01 130.016C432.01 136.081 436.927 140.998 442.993 140.998Z" fill="url(#paint0_radial_11192_5067)"/>
<path opacity="0.5" d="M415.261 148.354C420.873 146.054 423.557 139.639 421.257 134.027C418.956 128.415 412.542 125.731 406.93 128.031C401.318 130.332 398.633 136.746 400.934 142.358C403.234 147.97 409.648 150.655 415.261 148.354Z" fill="url(#paint1_radial_11192_5067)"/>
<path d="M429.572 126.511C429.267 126.51 428.97 126.409 428.727 126.226C428.484 126.042 428.307 125.784 428.222 125.491C427.947 124.538 427.862 123.539 427.972 122.553C428.082 121.567 428.386 120.613 428.865 119.744C429.833 117.989 431.458 116.691 433.383 116.135C435.308 115.578 437.376 115.809 439.13 116.777C440.885 117.745 442.183 119.371 442.74 121.296C442.807 121.478 442.836 121.673 442.825 121.867C442.813 122.061 442.762 122.251 442.674 122.424C442.585 122.598 442.462 122.751 442.312 122.875C442.162 122.998 441.988 123.089 441.8 123.142C441.613 123.195 441.417 123.209 441.224 123.183C441.032 123.156 440.847 123.09 440.681 122.989C440.514 122.888 440.371 122.753 440.26 122.594C440.148 122.434 440.071 122.253 440.032 122.063C439.872 121.453 439.59 120.881 439.205 120.381C438.82 119.881 438.339 119.463 437.79 119.152C437.241 118.841 436.636 118.643 436.009 118.569C435.382 118.495 434.747 118.548 434.141 118.723C433.535 118.899 432.97 119.194 432.48 119.591C431.989 119.988 431.583 120.479 431.285 121.035C430.988 121.591 430.804 122.201 430.745 122.83C430.687 123.458 430.755 124.092 430.945 124.693C430.996 124.871 431.012 125.057 430.991 125.241C430.97 125.425 430.913 125.603 430.824 125.765C430.734 125.927 430.613 126.069 430.468 126.184C430.323 126.299 430.156 126.384 429.978 126.434C429.847 126.48 429.71 126.506 429.572 126.511Z" fill="black"/>
<path d="M407.845 132.439C407.54 132.438 407.244 132.338 407.001 132.154C406.757 131.97 406.58 131.712 406.495 131.419C406.22 130.467 406.136 129.47 406.246 128.485C406.357 127.5 406.66 126.546 407.139 125.679C407.618 124.811 408.263 124.046 409.037 123.427C409.812 122.809 410.701 122.349 411.653 122.074C412.605 121.799 413.602 121.715 414.587 121.825C415.572 121.935 416.526 122.239 417.393 122.718C418.261 123.197 419.026 123.842 419.645 124.616C420.263 125.391 420.723 126.28 420.998 127.232C421.068 127.58 421.004 127.942 420.819 128.245C420.633 128.549 420.341 128.771 419.999 128.868C419.657 128.964 419.291 128.929 418.975 128.768C418.658 128.607 418.414 128.332 418.291 127.999C418.134 127.384 417.856 126.807 417.473 126.302C417.089 125.797 416.608 125.374 416.058 125.059C415.507 124.744 414.899 124.542 414.27 124.466C413.64 124.391 413.002 124.442 412.392 124.618C411.783 124.794 411.215 125.09 410.723 125.49C410.23 125.89 409.823 126.384 409.526 126.944C409.228 127.504 409.046 128.118 408.991 128.75C408.935 129.382 409.007 130.018 409.203 130.622C409.256 130.801 409.274 130.989 409.253 131.175C409.233 131.361 409.176 131.541 409.085 131.705C408.995 131.868 408.872 132.012 408.725 132.128C408.578 132.243 408.409 132.328 408.229 132.378C408.104 132.416 407.975 132.437 407.845 132.439Z" fill="black"/>
<path d="M425.17 143.989C421.694 143.996 418.325 142.789 415.645 140.576C415.479 140.467 415.338 140.324 415.231 140.157C415.124 139.99 415.054 139.803 415.024 139.607C414.995 139.411 415.007 139.211 415.06 139.019C415.113 138.828 415.205 138.651 415.332 138.498C415.458 138.345 415.615 138.22 415.793 138.132C415.97 138.044 416.165 137.995 416.363 137.987C416.561 137.979 416.758 138.013 416.943 138.086C417.127 138.16 417.293 138.271 417.432 138.413C419.611 140.206 422.348 141.179 425.17 141.166C427.738 141.213 430.25 140.412 432.317 138.887C434.385 137.362 435.891 135.198 436.604 132.73C436.716 132.387 436.955 132.099 437.273 131.926C437.59 131.754 437.962 131.71 438.311 131.803C438.66 131.897 438.96 132.12 439.149 132.429C439.338 132.737 439.402 133.105 439.327 133.459C438.453 136.527 436.593 139.221 434.034 141.124C431.474 143.028 428.359 144.035 425.17 143.989Z" fill="black"/>
</g>
<path d="M219.293 32.443C219.293 34.7228 217.445 36.5709 215.165 36.5709C212.885 36.5709 211.037 34.7228 211.037 32.443C211.037 30.1633 212.885 28.3152 215.165 28.3152C217.445 28.3152 219.293 30.1633 219.293 32.443Z" stroke="#33B6FF" stroke-width="3.0959"/>
<path d="M422.59 238.836C422.59 241.116 420.742 242.964 418.462 242.964C416.183 242.964 414.335 241.116 414.335 238.836C414.335 236.556 416.183 234.708 418.462 234.708C420.742 234.708 422.59 236.556 422.59 238.836Z" fill="white" stroke="#F88601" stroke-width="3.0959"/>
<path d="M442.714 220.777H455.097" stroke="#33B6FF" stroke-width="3.0959" stroke-linecap="round"/>
<path d="M448.906 214.585L448.906 226.969" stroke="#33B6FF" stroke-width="3.0959" stroke-linecap="round"/>
<path d="M425.17 200.138H431.362" stroke="#00C2A7" stroke-width="2.06393" stroke-linecap="round"/>
<path d="M428.266 197.042L428.266 203.233" stroke="#00C2A7" stroke-width="2.06393" stroke-linecap="round"/>
<path d="M229.096 8.19177H241.48" stroke="#F88601" stroke-width="3.0959" stroke-linecap="round"/>
<path d="M235.288 2L235.288 14.3836" stroke="#F88601" stroke-width="3.0959" stroke-linecap="round"/>
<path d="M257.733 166.082L234.011 184.721L234.011 147.443L257.733 166.082Z" fill="#2361F9"/>
<path d="M245.291 160.298L238.775 155.229" stroke="white" stroke-opacity="0.3" stroke-width="2.06393" stroke-linecap="round"/>
<rect x="224.691" y="156.763" width="10.1668" height="18.6391" fill="#2361F9"/>
<rect x="220.455" y="156.763" width="2.5417" height="18.6391" fill="#2361F9"/>
<rect x="217.066" y="156.763" width="1.69446" height="18.6391" fill="#2361F9"/>
<rect x="214.391" y="156.763" width="1.07019" height="18.6391" fill="#2361F9"/>
<defs>
<filter id="filter0_f_11192_5067" x="6.19132" y="64.9501" width="199.17" height="259.024" filterUnits="userSpaceOnUse" color-interpolation-filters="sRGB">
<feFlood flood-opacity="0" result="BackgroundImageFix"/>
<feBlend mode="normal" in="SourceGraphic" in2="BackgroundImageFix" result="shape"/>
<feGaussianBlur stdDeviation="5.15983" result="effect1_foregroundBlur_11192_5067"/>
</filter>
<filter id="filter1_f_11192_5067" x="217.745" y="32.959" width="199.17" height="259.024" filterUnits="userSpaceOnUse" color-interpolation-filters="sRGB">
<feFlood flood-opacity="0" result="BackgroundImageFix"/>
<feBlend mode="normal" in="SourceGraphic" in2="BackgroundImageFix" result="shape"/>
<feGaussianBlur stdDeviation="5.15983" result="effect1_foregroundBlur_11192_5067"/>
</filter>
<filter id="filter2_d_11192_5067" x="222.905" y="72.1738" width="206.393" height="130.028" filterUnits="userSpaceOnUse" color-interpolation-filters="sRGB">
<feFlood flood-opacity="0" result="BackgroundImageFix"/>
<feColorMatrix in="SourceAlpha" type="matrix" values="0 0 0 0 0 0 0 0 0 0 0 0 0 0 0 0 0 0 127 0" result="hardAlpha"/>
<feOffset dy="12.3836"/>
<feGaussianBlur stdDeviation="12.3836"/>
<feComposite in2="hardAlpha" operator="out"/>
<feColorMatrix type="matrix" values="0 0 0 0 0.0756944 0 0 0 0 0.454167 0 0 0 0 0.340625 0 0 0 0.08 0"/>
<feBlend mode="normal" in2="BackgroundImageFix" result="effect1_dropShadow_11192_5067"/>
<feBlend mode="normal" in="SourceGraphic" in2="effect1_dropShadow_11192_5067" result="shape"/>
</filter>
<filter id="filter3_d_11192_5067" x="222.905" y="160.923" width="206.393" height="130.028" filterUnits="userSpaceOnUse" color-interpolation-filters="sRGB">
<feFlood flood-opacity="0" result="BackgroundImageFix"/>
<feColorMatrix in="SourceAlpha" type="matrix" values="0 0 0 0 0 0 0 0 0 0 0 0 0 0 0 0 0 0 127 0" result="hardAlpha"/>
<feOffset dy="12.3836"/>
<feGaussianBlur stdDeviation="12.3836"/>
<feComposite in2="hardAlpha" operator="out"/>
<feColorMatrix type="matrix" values="0 0 0 0 0.0756944 0 0 0 0 0.454167 0 0 0 0 0.340625 0 0 0 0.08 0"/>
<feBlend mode="normal" in2="BackgroundImageFix" result="effect1_dropShadow_11192_5067"/>
<feBlend mode="normal" in="SourceGraphic" in2="effect1_dropShadow_11192_5067" result="shape"/>
</filter>
<radialGradient id="paint0_radial_11192_5067" cx="0" cy="0" r="1" gradientUnits="userSpaceOnUse" gradientTransform="translate(442.993 130.016) scale(10.9822)">
<stop stop-color="#FF4D43"/>
<stop offset="0.84" stop-color="#FFDE75"/>
</radialGradient>
<radialGradient id="paint1_radial_11192_5067" cx="0" cy="0" r="1" gradientUnits="userSpaceOnUse" gradientTransform="translate(411.115 138.191) scale(10.9822 10.9822)">
<stop stop-color="#FF4D43"/>
<stop offset="0.84" stop-color="#FFDE75"/>
</radialGradient>
<clipPath id="clip0_11192_5067">
<rect width="41.2787" height="41.2787" fill="white" transform="translate(0 148.539)"/>
</clipPath>
<clipPath id="clip1_11192_5067">
<rect width="58.8221" height="58.8221" fill="white" transform="translate(399.371 108.941)"/>
</clipPath>
</defs>
</svg>
